<svg xmlns="http://www.w3.org/2000/svg" xmlns:xlink="http://www.w3.org/1999/xlink" version="1.1" id="Layer_1" x="0px" y="0px" width="100%" viewBox="0 0 333 333" enable-background="new 0 0 333 333" xml:space="preserve">
<path fill="#ffffff" opacity="1.000000" stroke="none" d=" M334.000000,113.000000   C334.000000,186.972412 334.000000,260.444824 334.000000,333.958618   C223.069260,333.958618 112.138504,333.958618 1.103873,333.958618   C1.103873,223.110992 1.103873,112.221863 1.103873,1.166365   C111.999794,1.166365 222.999878,1.166365 334.000000,1.166365   C334.000000,38.194733 334.000000,75.347366 334.000000,113.000000  M199.013214,278.923523   C199.019043,270.337402 199.024887,261.751282 199.955795,253.033783   C201.120895,253.022720 202.285980,253.002106 203.451080,253.001999   C235.578171,252.999298 267.705383,253.029236 299.832031,252.914810   C301.589111,252.908539 303.341919,251.701324 305.900543,251.010040   C315.538391,249.717697 321.101196,244.338364 323.075073,234.597229   C323.270721,233.631897 324.252258,232.825806 325.717010,231.949722   C326.477814,230.091309 327.897369,228.234802 327.902771,226.374207   C328.028046,183.246689 327.999847,140.118729 327.999969,96.990852   C328.000000,81.504784 328.013275,66.018677 327.982605,50.532669   C327.978577,48.505318 328.733551,45.863033 325.029175,45.239391   C322.652405,38.087914 318.133484,32.396721 312.219971,28.001442   C309.267639,25.807083 305.501617,24.707495 301.326050,22.751757   C299.710938,22.501503 298.095947,22.032919 296.480743,22.032269   C210.210434,21.997595 123.940117,21.995142 37.669849,22.049742   C35.748802,22.050959 33.828197,22.748335 31.122992,23.027256   C28.142387,24.658268 25.020275,26.078249 22.209721,27.962858   C15.738541,32.302086 11.073192,37.997375 9.028910,46.034462   C8.352646,47.801918 7.089965,49.567989 7.085773,51.337036   C6.977386,97.079590 6.999963,142.822449 6.999994,188.565262   C7.000002,201.539581 6.985919,214.513931 7.015590,227.488190   C7.020251,229.526642 6.300265,232.147797 9.998947,232.785065   C10.991307,234.916656 12.147120,236.988937 12.945831,239.190781   C15.488621,246.200607 21.235880,250.541687 29.304625,251.747986   C31.324848,252.164719 33.343678,252.937225 35.365505,252.945145   C68.905258,253.076797 102.445381,253.112503 135.994614,254.083405   C135.990356,262.667328 135.986099,271.251251 135.054718,279.957184   C130.224609,279.971130 125.385185,279.821442 120.569855,280.095337   C119.058350,280.181335 117.611633,281.406372 115.827156,282.627075   C115.193405,283.048737 114.559662,283.470367 113.280724,284.354034   C113.154121,292.242279 113.027512,300.130493 113.137459,308.603516   C114.064316,309.445496 114.991173,310.287445 116.363197,311.788727   C117.733643,312.191681 119.103348,312.943451 120.474655,312.946381   C151.709900,313.013062 182.945374,313.020477 214.180420,312.918945   C215.487885,312.914703 216.791580,311.751526 218.655960,310.843628   C219.475128,309.908844 220.294296,308.974030 221.821823,307.660034   C222.071213,300.500366 222.346451,293.341248 222.504440,286.179565   C222.513718,285.758789 221.577042,285.317169 220.813232,284.324768   C219.879272,283.533051 218.945312,282.741364 217.647171,281.236359   C216.156357,280.823700 214.678116,280.117340 213.172409,280.052917   C208.467285,279.851776 203.751801,279.893066 199.013214,278.923523  z"/>
<path fill="#0db760" opacity="1.000000" stroke="none" d=" M218.011368,281.949646   C218.945312,282.741364 219.879272,283.533051 220.773087,284.995728   C220.859787,293.124237 220.986633,300.581726 221.113464,308.039246   C220.294296,308.974030 219.475128,309.908844 217.989624,310.799622   C215.879395,310.503815 214.435822,310.034241 212.991577,310.032227   C182.381104,309.989655 151.770523,309.981171 121.160149,310.047760   C119.411995,310.051575 117.665367,310.752777 115.918030,311.129395   C114.991173,310.287445 114.064316,309.445496 113.425461,308.226410   C113.784279,299.863525 113.855095,291.877777 113.925911,283.891998   C114.559662,283.470367 115.193405,283.048737 116.359009,282.518494   C123.510979,282.595215 130.131836,282.877228 136.750183,282.827515   C137.471558,282.822083 138.178543,280.903809 138.934021,279.413818   C138.965607,270.344421 138.955353,261.733948 138.947296,252.700714   C137.261612,251.518799 135.576385,250.104202 133.885513,250.097443   C101.164047,249.966461 68.441887,249.979355 35.720032,250.044952   C33.444241,250.049515 31.169741,250.697342 28.894642,251.046051   C21.235880,250.541687 15.488621,246.200607 12.945831,239.190781   C12.147120,236.988937 10.991307,234.916656 9.993338,231.932983   C9.994082,176.863205 10.006967,122.645500 9.999219,68.427795   C9.998151,60.947498 9.894850,53.467213 9.838877,45.986923   C11.073192,37.997375 15.738541,32.302086 22.209721,27.962858   C25.020275,26.078249 28.142387,24.658268 31.733032,23.409710   C34.213177,24.195387 36.082371,24.944965 37.953526,24.949888   C66.094337,25.023935 94.235413,24.999241 122.376427,24.999203   C180.490112,24.999121 238.603836,25.016811 296.717377,24.921036   C298.513794,24.918076 300.308258,23.741915 302.103638,23.112715   C305.501617,24.707495 309.267639,25.807083 312.219971,28.001442   C318.133484,32.396721 322.652405,38.087914 325.024292,46.078018   C325.009735,64.206291 325.004333,81.495941 324.989532,98.785583   C324.951569,143.172318 324.909454,187.559067 324.869019,231.945801   C324.252258,232.825806 323.270721,233.631897 323.075073,234.597229   C321.101196,244.338364 315.538391,249.717697 305.109161,250.859085   C302.532501,250.472092 300.748108,250.039841 298.961761,250.031479   C286.335144,249.972229 273.708130,249.999939 261.081238,250.000031   C240.977890,250.000168 220.874542,249.987045 200.771240,250.019958   C198.607956,250.023499 195.710266,249.184158 196.033081,253.580658   C196.046387,262.651276 196.081238,271.262390 196.098022,280.298126   C196.427689,281.406067 196.788971,282.691376 197.121109,282.683899   C204.086502,282.526978 211.048615,282.223938 218.011368,281.949646  M290.749237,217.658829   C291.165955,215.625763 291.943390,213.593246 291.946442,211.559555   C292.015472,165.765350 291.999512,119.970993 291.999298,74.176674   C291.999298,69.847031 291.924438,65.515663 292.026398,61.188450   C292.080322,58.901199 291.437622,57.631622 287.987274,58.013054   C246.508484,58.004616 205.029694,57.979916 163.550903,57.992447   C124.405418,58.004269 85.259941,58.055260 45.261593,58.051189   C44.507927,59.729118 43.099663,61.405518 43.095737,63.085194   C42.978626,113.165176 42.992039,163.245499 43.040146,213.325714   C43.041649,214.891144 43.628624,216.456024 44.356228,218.707016   C46.384815,219.137802 48.412437,219.938599 50.442135,219.943909   C81.066994,220.023911 111.692116,219.999374 142.317184,219.999374   C189.752747,219.999374 237.188354,220.020477 284.623688,219.918930   C286.441986,219.915039 288.257690,218.728989 290.749237,217.658829  z"/>
<path fill="#0db760" opacity="1.000000" stroke="none" d=" M301.714844,22.932232   C300.308258,23.741915 298.513794,24.918076 296.717377,24.921036   C238.603836,25.016811 180.490112,24.999121 122.376427,24.999203   C94.235413,24.999241 66.094337,25.023935 37.953526,24.949888   C36.082371,24.944965 34.213177,24.195387 32.125229,23.456568   C33.828197,22.748335 35.748802,22.050959 37.669849,22.049742   C123.940117,21.995142 210.210434,21.997595 296.480743,22.032269   C298.095947,22.032919 299.710938,22.501503 301.714844,22.932232  z"/>
<path fill="#f4faf6" opacity="1.000000" stroke="none" d=" M325.293030,231.947754   C324.909454,187.559067 324.951569,143.172318 324.989532,98.785583   C325.004333,81.495941 325.009735,64.206291 325.090637,46.451744   C328.733551,45.863033 327.978577,48.505318 327.982605,50.532669   C328.013275,66.018677 328.000000,81.504784 327.999969,96.990852   C327.999847,140.118729 328.028046,183.246689 327.902771,226.374207   C327.897369,228.234802 326.477814,230.091309 325.293030,231.947754  z"/>
<path fill="#f4faf6" opacity="1.000000" stroke="none" d=" M9.433893,46.010693   C9.894850,53.467213 9.998151,60.947498 9.999219,68.427795   C10.006967,122.645500 9.994082,176.863205 9.921930,231.546448   C6.300265,232.147797 7.020251,229.526642 7.015590,227.488190   C6.985919,214.513931 7.000002,201.539581 6.999994,188.565262   C6.999963,142.822449 6.977386,97.079590 7.085773,51.337036   C7.089965,49.567989 8.352646,47.801918 9.433893,46.010693  z"/>
<path fill="#0db760" opacity="1.000000" stroke="none" d=" M29.099632,251.397003   C31.169741,250.697342 33.444241,250.049515 35.720032,250.044952   C68.441887,249.979355 101.164047,249.966461 133.885513,250.097443   C135.576385,250.104202 137.261612,251.518799 138.578018,252.655701   C137.466187,253.078857 136.725800,253.124252 135.985428,253.169647   C102.445381,253.112503 68.905258,253.076797 35.365505,252.945145   C33.343678,252.937225 31.324848,252.164719 29.099632,251.397003  z"/>
<path fill="#0db760" opacity="1.000000" stroke="none" d=" M196.054611,253.121140   C195.710266,249.184158 198.607956,250.023499 200.771240,250.019958   C220.874542,249.987045 240.977890,250.000168 261.081238,250.000031   C273.708130,249.999939 286.335144,249.972229 298.961761,250.031479   C300.748108,250.039841 302.532501,250.472092 304.707245,250.880615   C303.341919,251.701324 301.589111,252.908539 299.832031,252.914810   C267.705383,253.029236 235.578171,252.999298 203.451080,253.001999   C202.285980,253.002106 201.120895,253.022720 199.124207,253.038513   C197.546600,253.069199 196.800613,253.095169 196.054611,253.121140  z"/>
<path fill="#0db760" opacity="1.000000" stroke="none" d=" M116.140617,311.459076   C117.665367,310.752777 119.411995,310.051575 121.160149,310.047760   C151.770523,309.981171 182.381104,309.989655 212.991577,310.032227   C214.435822,310.034241 215.879395,310.503815 217.710159,310.941956   C216.791580,311.751526 215.487885,312.914703 214.180420,312.918945   C182.945374,313.020477 151.709900,313.013062 120.474655,312.946381   C119.103348,312.943451 117.733643,312.191681 116.140617,311.459076  z"/>
<path fill="#f4faf6" opacity="1.000000" stroke="none" d=" M135.990021,253.626526   C136.725800,253.124252 137.466187,253.078857 138.575836,253.078476   C138.955353,261.733948 138.965607,270.344421 138.570953,279.452271   C137.437973,279.911499 136.709900,279.873352 135.981842,279.835175   C135.986099,271.251251 135.990356,262.667328 135.990021,253.626526  z"/>
<path fill="#0db760" opacity="1.000000" stroke="none" d=" M196.033081,253.580658   C196.800613,253.095169 197.546600,253.069199 198.661652,253.104187   C199.024887,261.751282 199.019043,270.337402 198.662598,279.429260   C197.580017,279.914459 196.848053,279.893982 196.116089,279.873474   C196.081238,271.262390 196.046387,262.651276 196.033081,253.580658  z"/>
<path fill="#0db760" opacity="1.000000" stroke="none" d=" M113.603317,284.123016   C113.855095,291.877777 113.784279,299.863525 113.307190,307.934021   C113.027512,300.130493 113.154121,292.242279 113.603317,284.123016  z"/>
<path fill="#0db760" opacity="1.000000" stroke="none" d=" M135.518280,279.896179   C136.709900,279.873352 137.437973,279.911499 138.529114,279.911224   C138.178543,280.903809 137.471558,282.822083 136.750183,282.827515   C130.131836,282.877228 123.510979,282.595215 116.513062,282.259979   C117.611633,281.406372 119.058350,280.181335 120.569855,280.095337   C125.385185,279.821442 130.224609,279.971130 135.518280,279.896179  z"/>
<path fill="#0db760" opacity="1.000000" stroke="none" d=" M221.467651,307.849640   C220.986633,300.581726 220.859787,293.124237 220.906754,285.276001   C221.577042,285.317169 222.513718,285.758789 222.504440,286.179565   C222.346451,293.341248 222.071213,300.500366 221.467651,307.849640  z"/>
<path fill="#0db760" opacity="1.000000" stroke="none" d=" M196.098022,280.298126   C196.848053,279.893982 197.580017,279.914459 198.676147,279.887695   C203.751801,279.893066 208.467285,279.851776 213.172409,280.052917   C214.678116,280.117340 216.156357,280.823700 217.829269,281.592987   C211.048615,282.223938 204.086502,282.526978 197.121109,282.683899   C196.788971,282.691376 196.427689,281.406067 196.098022,280.298126  z"/>
<path fill="#ffffff" opacity="1.000000" stroke="none" d=" M46.114464,58.089020   C85.259941,58.055260 124.405418,58.004269 163.550903,57.992447   C205.029694,57.979916 246.508484,58.004616 288.480377,58.525738   C288.978821,111.677589 288.984131,164.316757 288.521729,216.972626   C258.613373,216.993057 229.172760,217.009506 199.732132,216.997696   C148.502991,216.977142 97.273865,216.939178 46.027420,216.447144   C46.044895,163.353531 46.079678,110.721268 46.114464,58.089020  M166.918243,107.286621   C165.277512,111.997398 163.821838,116.783287 161.948196,121.399529   C159.715134,126.901306 157.072998,132.235580 154.703201,137.683792   C152.732346,142.214783 150.185669,146.655746 149.187180,151.408264   C147.966187,157.219955 145.149841,162.219208 142.967331,167.546799   C141.018738,172.303467 138.960632,177.015320 137.015335,181.773315   C136.244858,183.657791 135.839462,185.709732 134.929489,187.514862   C133.430023,190.489380 133.310760,192.439987 137.347290,193.081909   C139.531296,193.429214 141.556381,194.684647 143.731491,195.199371   C147.430603,196.074753 151.172028,196.941269 154.940445,197.232941   C155.868774,197.304794 157.381927,195.314148 157.920547,193.985596   C160.380157,187.918732 162.529343,181.726990 164.903091,175.624084   C167.532242,168.864563 170.366501,162.184280 172.958221,155.410858   C175.309326,149.266251 177.231659,142.950272 179.753769,136.880508   C182.221649,130.941254 185.447815,125.316101 187.894760,119.369415   C190.024124,114.194511 191.463882,108.739716 193.334076,103.453064   C194.729355,99.508888 195.802429,95.314034 197.958984,91.809204   C200.900009,87.029488 200.188446,84.435532 194.617706,82.948006   C192.304352,82.330292 190.050156,81.405724 187.864288,80.411354   C180.465683,77.045662 180.051712,76.801025 177.438660,82.184593   C173.594391,90.104706 170.436646,98.358032 166.918243,107.286621  M244.878586,165.377838   C252.789383,157.142517 260.700195,148.907211 268.908997,140.361649   C253.961426,125.436455 238.843201,110.240990 223.501282,95.274826   C222.599136,94.394775 219.257721,94.635544 218.145248,95.607140   C214.683289,98.630783 212.148758,102.797478 208.500504,105.504784   C204.520615,108.458183 205.825531,110.389832 208.404205,112.950790   C216.550461,121.041077 224.560638,129.271576 232.835953,137.226791   C235.393616,139.685532 235.325562,141.559998 233.017349,143.824326   C230.542404,146.252197 228.056351,148.668762 225.587646,151.102966   C219.654037,156.953629 213.684006,162.768295 207.816498,168.684616   C204.782272,171.744095 205.250763,173.323502 209.109314,175.094376   C209.982315,175.495071 210.614578,176.775681 211.018372,177.786758   C214.094330,185.488342 222.085938,187.358536 227.849915,181.735306   C233.310928,176.407684 238.854279,171.164459 244.878586,165.377838  M103.008286,178.508698   C104.066490,179.568878 105.122017,180.631744 106.183372,181.688782   C111.020760,186.506485 115.002068,186.558884 119.870613,181.561035   C121.725616,179.656769 122.672447,176.287292 124.808197,175.348175   C130.720840,172.748337 127.919739,170.394150 125.261269,167.732529   C117.733063,160.195389 110.275444,152.584641 102.614334,145.184799   C99.300880,141.984360 98.980164,139.274155 102.422333,136.011215   C106.956490,131.713150 111.293449,127.207100 115.715942,122.791222   C119.338326,119.174240 123.214188,115.763985 126.430496,111.816284   C127.392044,110.636070 127.314827,107.302437 126.324806,106.081291   C123.197769,102.224228 119.597366,98.677528 115.768326,95.508247   C114.636398,94.571358 112.087425,95.003914 110.292297,95.350304   C109.344154,95.533264 108.589287,96.852242 107.800858,97.707802   C99.042664,107.211655 90.436142,116.861206 81.471428,126.165756   C78.125839,129.638184 73.760994,132.106293 70.200851,135.399796   C65.528381,139.722336 65.647789,141.107407 70.035408,145.503708   C80.853310,156.342987 91.681992,167.171509 103.008286,178.508698  z"/>
<path fill="#0db760" opacity="1.000000" stroke="none" d=" M46.044724,216.908524   C97.273865,216.939178 148.502991,216.977142 199.732132,216.997696   C229.172760,217.009506 258.613373,216.993057 288.634918,217.218903   C289.502075,217.663574 289.788361,217.878677 290.074615,218.093781   C288.257690,218.728989 286.441986,219.915039 284.623688,219.918930   C237.188354,220.020477 189.752747,219.999374 142.317184,219.999374   C111.692116,219.999374 81.066994,220.023911 50.442135,219.943909   C48.412437,219.938599 46.384815,219.137802 44.466217,218.334045   C45.065712,217.610229 45.555218,217.259369 46.044724,216.908524  z"/>
<path fill="#0db760" opacity="1.000000" stroke="none" d=" M46.027416,216.447144   C45.555218,217.259369 45.065712,217.610229 44.259430,217.991119   C43.628624,216.456024 43.041649,214.891144 43.040146,213.325714   C42.992039,163.245499 42.978626,113.165176 43.095737,63.085194   C43.099663,61.405518 44.507927,59.729118 45.688026,58.070103   C46.079678,110.721268 46.044895,163.353531 46.027416,216.447144  z"/>
<path fill="#0db760" opacity="1.000000" stroke="none" d=" M290.411926,217.876312   C289.788361,217.878677 289.502075,217.663574 289.102661,217.202194   C288.984131,164.316757 288.978821,111.677589 288.940399,58.579552   C291.437622,57.631622 292.080322,58.901199 292.026398,61.188450   C291.924438,65.515663 291.999298,69.847031 291.999298,74.176674   C291.999512,119.970993 292.015472,165.765350 291.946442,211.559555   C291.943390,213.593246 291.165955,215.625763 290.411926,217.876312  z"/>
<path fill="#0db760" opacity="1.000000" stroke="none" d=" M166.952347,106.878021   C170.436646,98.358032 173.594391,90.104706 177.438660,82.184593   C180.051712,76.801025 180.465683,77.045662 187.864288,80.411354   C190.050156,81.405724 192.304352,82.330292 194.617706,82.948006   C200.188446,84.435532 200.900009,87.029488 197.958984,91.809204   C195.802429,95.314034 194.729355,99.508888 193.334076,103.453064   C191.463882,108.739716 190.024124,114.194511 187.894760,119.369415   C185.447815,125.316101 182.221649,130.941254 179.753769,136.880508   C177.231659,142.950272 175.309326,149.266251 172.958221,155.410858   C170.366501,162.184280 167.532242,168.864563 164.903091,175.624084   C162.529343,181.726990 160.380157,187.918732 157.920547,193.985596   C157.381927,195.314148 155.868774,197.304794 154.940445,197.232941   C151.172028,196.941269 147.430603,196.074753 143.731491,195.199371   C141.556381,194.684647 139.531296,193.429214 137.347290,193.081909   C133.310760,192.439987 133.430023,190.489380 134.929489,187.514862   C135.839462,185.709732 136.244858,183.657791 137.015335,181.773315   C138.960632,177.015320 141.018738,172.303467 142.967331,167.546799   C145.149841,162.219208 147.966187,157.219955 149.187180,151.408264   C150.185669,146.655746 152.732346,142.214783 154.703201,137.683792   C157.072998,132.235580 159.715134,126.901306 161.948196,121.399529   C163.821838,116.783287 165.277512,111.997398 166.952347,106.878021  z"/>
<path fill="#0db760" opacity="1.000000" stroke="none" d=" M244.620010,165.630981   C238.854279,171.164459 233.310928,176.407684 227.849915,181.735306   C222.085938,187.358536 214.094330,185.488342 211.018372,177.786758   C210.614578,176.775681 209.982315,175.495071 209.109314,175.094376   C205.250763,173.323502 204.782272,171.744095 207.816498,168.684616   C213.684006,162.768295 219.654037,156.953629 225.587646,151.102966   C228.056351,148.668762 230.542404,146.252197 233.017349,143.824326   C235.325562,141.559998 235.393616,139.685532 232.835953,137.226791   C224.560638,129.271576 216.550461,121.041077 208.404205,112.950790   C205.825531,110.389832 204.520615,108.458183 208.500504,105.504784   C212.148758,102.797478 214.683289,98.630783 218.145248,95.607140   C219.257721,94.635544 222.599136,94.394775 223.501282,95.274826   C238.843201,110.240990 253.961426,125.436455 268.908997,140.361649   C260.700195,148.907211 252.789383,157.142517 244.620010,165.630981  z"/>
<path fill="#0db760" opacity="1.000000" stroke="none" d=" M102.757309,178.256531   C91.681992,167.171509 80.853310,156.342987 70.035408,145.503708   C65.647789,141.107407 65.528381,139.722336 70.200851,135.399796   C73.760994,132.106293 78.125839,129.638184 81.471428,126.165756   C90.436142,116.861206 99.042664,107.211655 107.800858,97.707802   C108.589287,96.852242 109.344154,95.533264 110.292297,95.350304   C112.087425,95.003914 114.636398,94.571358 115.768326,95.508247   C119.597366,98.677528 123.197769,102.224228 126.324806,106.081291   C127.314827,107.302437 127.392044,110.636070 126.430496,111.816284   C123.214188,115.763985 119.338326,119.174240 115.715942,122.791222   C111.293449,127.207100 106.956490,131.713150 102.422333,136.011215   C98.980164,139.274155 99.300880,141.984360 102.614334,145.184799   C110.275444,152.584641 117.733063,160.195389 125.261269,167.732529   C127.919739,170.394150 130.720840,172.748337 124.808197,175.348175   C122.672447,176.287292 121.725616,179.656769 119.870613,181.561035   C115.002068,186.558884 111.020760,186.506485 106.183372,181.688782   C105.122017,180.631744 104.066490,179.568878 102.757309,178.256531  z"/>
</svg>